<svg xmlns="http://www.w3.org/2000/svg" width="334.3999938964844" height="334.3999938964844"><rect id="backgroundrect" width="100%" height="100%" x="0" y="0" fill="none" stroke="none"/>
	<defs>
		<style type="text/css">.st0{fill:#fff100}</style>
	</defs>
	
<g class="currentLayer" style=""><title>Layer 1</title><g id="svg_1" class="selected">
		<path d="M167.02220153808594,333.84443759918213 L167.02220153808594,333.84443759918213 c-92.5,0 -167.1999969482422,-74.69999694824219 -167.1999969482422,-167.1999969482422 l0,0 C-0.1777801513671875,74.14444065093994 74.52220153808594,-0.5555562973022461 167.02220153808594,-0.5555562973022461 l0,0 C259.52220153808594,-0.5555562973022461 334.2222137451172,74.14444065093994 334.2222137451172,166.64444065093994 l0,0 C334.2222137451172,259.0444498062134 259.52220153808594,333.84443759918213 167.02220153808594,333.84443759918213 z" stroke-width="0" id="svg_2"/>
		<path d="M256.42222595214844,141.64444065093994 h-32.79999923706055 v49.5 h32.79999923706055 c13.699999809265137,0 24.899999618530273,-11.300000190734863 24.899999618530273,-24.899999618530273 S270.12220764160156,141.64444065093994 256.42222595214844,141.64444065093994 " class="st0" stroke-width="0" id="svg_3"/>
		<path d="M62.92222595214844,166.54444980621338 c0,38.20000076293945 31.100000381469727,69.30000305175781 69.30000305175781,69.30000305175781 c38.20000076293945,0 69.30000305175781,-31.100000381469727 69.30000305175781,-69.30000305175781 s-31.100000381469727,-69.30000305175781 -69.30000305175781,-69.30000305175781 C94.02220153808594,97.24444675445557 62.92222595214844,128.34443759918213 62.92222595214844,166.54444980621338 L62.92222595214844,166.54444980621338 " class="st0" stroke-width="0" id="svg_4"/>
	</g></g></svg>