<svg xmlns="http://www.w3.org/2000/svg" viewBox="0 0 16 16"><path id="folder" fill="#c0ca33" d="M14.483 6H4.721a1 1 0 0 0-.949.684L2 12V5h12a1 1 0 0 0-1-1H7.562a1 1 0 0 1-.64-.232l-.644-.536A1 1 0 0 0 5.638 3H2a1 1 0 0 0-1 1v8a1 1 0 0 0 1 1h11l2.403-5.606A1 1 0 0 0 14.483 6" /><path id="motive" fill="#f0f4c3" d="M11.5 8a1.5 1.5 0 0 0 .002-3H11.5A1.5 1.5 0 0 0 10 6.5 1.5 1.5 0 0 0 11.5 8m0 1.987C10.387 8.947 8.523 7.996 7 8v5c1.595 0 3.425 1.002 4.5 2 1.113-1.039 2.978-2.002 4.5-2V8c-1.522-.003-3.387.947-4.5 1.986"/></svg>