<svg xmlns="http://www.w3.org/2000/svg" viewBox="0 0 16 16"><path id="folder" fill="#2196f3" d="M14.483 6H4.721a1 1 0 0 0-.949.684L2 12V5h12a1 1 0 0 0-1-1H7.562a1 1 0 0 1-.64-.232l-.644-.536A1 1 0 0 0 5.638 3H2a1 1 0 0 0-1 1v8a1 1 0 0 0 1 1h11l2.403-5.606A1 1 0 0 0 14.483 6" /><path id="motive" fill="#bbdefb" d="M15.012 14a.95.95 0 0 1-.703-.288 1.035 1.035 0 0 1 0-1.425 1.005 1.005 0 0 1 1.407 0 1.035 1.035 0 0 1 0 1.425.95.95 0 0 1-.704.288m0-3a.95.95 0 0 1-.703-.288 1.035 1.035 0 0 1 0-1.425 1.005 1.005 0 0 1 1.407 0 1.035 1.035 0 0 1 0 1.425.95.95 0 0 1-.704.288m0-3a.95.95 0 0 1-.703-.288 1.035 1.035 0 0 1 0-1.425 1.005 1.005 0 0 1 1.407 0 1.035 1.035 0 0 1 0 1.425.95.95 0 0 1-.704.288m-8.01 5.5v-1a.47.47 0 0 1 .428-.5h5.142a.47.47 0 0 1 .428.5v1a.47.47 0 0 1-.428.5H7.43a.47.47 0 0 1-.43-.5m0-3v-1a.47.47 0 0 1 .43-.5h5.142a.47.47 0 0 1 .428.5v1a.47.47 0 0 1-.428.5H7.43a.47.47 0 0 1-.43-.5m0-3v-1a.47.47 0 0 1 .43-.5h5.142a.47.47 0 0 1 .428.5v1a.47.47 0 0 1-.428.5H7.43A.47.47 0 0 1 7 7.5"/></svg>