<svg xmlns="http://www.w3.org/2000/svg" viewBox="0 0 16 16"><path id="folder" fill="#42a5f5" d="M14.483 6H4.721a1 1 0 0 0-.949.684L2 12V5h12a1 1 0 0 0-1-1H7.562a1 1 0 0 1-.64-.232l-.644-.536A1 1 0 0 0 5.638 3H2a1 1 0 0 0-1 1v8a1 1 0 0 0 1 1h11l2.403-5.606A1 1 0 0 0 14.483 6" /><path id="motive" fill="#b3e5fc" d="M14.5 5A1.5 1.5 0 0 0 13 6.5 1.5 1.5 0 0 0 14.5 8 1.5 1.5 0 0 0 16 6.5 1.5 1.5 0 0 0 14.5 5M9.851 7.297a3.852 3.852 0 1 0 3.852 3.852 3.85 3.85 0 0 0-3.852-3.852m.718 1.705A1.5 1.5 0 0 1 12 10.5a1.5 1.5 0 0 1-1.5 1.5 1.5 1.5 0 1 1 .07-2.998"/></svg>