<svg xmlns="http://www.w3.org/2000/svg" viewBox="0 0 16 16"><path id="folder" fill="#fbc02d" d="M14.483 6H4.721a1 1 0 0 0-.949.684L2 12V5h12a1 1 0 0 0-1-1H7.562a1 1 0 0 1-.64-.232l-.644-.536A1 1 0 0 0 5.638 3H2a1 1 0 0 0-1 1v8a1 1 0 0 0 1 1h11l2.403-5.606A1 1 0 0 0 14.483 6" /><path id="motive" fill="#fffde7" d="M7 7.5v2a.5.5 0 0 0 .5.5h8a.5.5 0 0 0 .5-.5v-2a.5.5 0 0 0-.5-.5h-8a.5.5 0 0 0-.5.5M10 9H8V8h2zm2 0h-1V8h1zm-5 2.5v2a.5.5 0 0 0 .5.5h8a.5.5 0 0 0 .5-.5v-2a.5.5 0 0 0-.5-.5h-8a.5.5 0 0 0-.5.5m3 1.5H8v-1h2zm2 0h-1v-1h1z"/></svg>