<svg xmlns="http://www.w3.org/2000/svg" viewBox="0 0 16 16"><path id="folder" fill="#7e57c2" d="M14.483 6H4.721a1 1 0 0 0-.949.684L2 12V5h12a1 1 0 0 0-1-1H7.562a1 1 0 0 1-.64-.232l-.644-.536A1 1 0 0 0 5.638 3H2a1 1 0 0 0-1 1v8a1 1 0 0 0 1 1h11l2.403-5.606A1 1 0 0 0 14.483 6" /><g id="motive" fill="#d1c4e9"><path d="M12.5 14H14l-2-6h-2l-2 6h1.5l.334-1h1.505L11 12h-.833L11 9.5z"/><path d="M14 6a1 1 0 0 0-.208.023 5.498 5.498 0 0 0-8.551 6.736.501.501 0 0 0 .86-.517 4.493 4.493 0 0 1 6.949-5.539A1 1 0 0 0 13 7a1 1 0 1 0 1-1"/></g></svg>