<svg xmlns="http://www.w3.org/2000/svg" viewBox="0 0 16 16"><path id="folder" fill="#1e88e5" d="M14.483 6H4.721a1 1 0 0 0-.949.684L2 12V5h12a1 1 0 0 0-1-1H7.562a1 1 0 0 1-.64-.232l-.644-.536A1 1 0 0 0 5.638 3H2a1 1 0 0 0-1 1v8a1 1 0 0 0 1 1h11l2.403-5.606A1 1 0 0 0 14.483 6" /><path id="motive" fill="#bbdefb" d="M14.18 5.32a1.5 1.5 0 1 1-1.5 1.5 1.3 1.3 0 0 1 .07-.42A4.05 4.05 0 0 0 11 6a4 4 0 0 0-4 4l.02.42-.995.105L6 10a4.998 4.998 0 0 1 7.335-4.42 1.5 1.5 0 0 1 .845-.26m0 1a.5.5 0 1 0 .5.5.5.5 0 0 0-.5-.5m-6.36 5.36a1.505 1.505 0 0 1 1.5 1.5 1.3 1.3 0 0 1-.07.42A4.05 4.05 0 0 0 11 14a4 4 0 0 0 4-4l-.02-.42.995-.105L16 10a4.998 4.998 0 0 1-7.335 4.42 1.5 1.5 0 1 1-.845-2.74m0 1a.5.5 0 1 0 .5.5.5.5 0 0 0-.5-.5M11 8a2 2 0 1 1-2 2 2 2 0 0 1 2-2"/></svg>