<svg xmlns="http://www.w3.org/2000/svg" viewBox="0 0 16 16"><path id="folder" fill="#546e7a" d="M14.483 6H4.721a1 1 0 0 0-.949.684L2 12V5h12a1 1 0 0 0-1-1H7.562a1 1 0 0 1-.64-.232l-.644-.536A1 1 0 0 0 5.638 3H2a1 1 0 0 0-1 1v8a1 1 0 0 0 1 1h11l2.403-5.606A1 1 0 0 0 14.483 6" /><path id="motive" fill="#fbc02d" fill-opacity=".976" d="m6.01 5 3.35 2.996H7l2.334 1.997H6L10.006 14V5.999h1.772l.791.998h-1.564v2.996h.989l.988.999h-1.99l.013.012v2.984H16l-1.998-1.515v-.61l.328.328-.328-3.197h-1V7.991l1.999.997v-2.99l-2.997-.5L10.966 5Z"/></svg>