<svg xmlns="http://www.w3.org/2000/svg" viewBox="0 0 16 16"><path id="folder" fill="#78909c" d="M14.483 6H4.721a1 1 0 0 0-.949.684L2 12V5h12a1 1 0 0 0-1-1H7.562a1 1 0 0 1-.64-.232l-.644-.536A1 1 0 0 0 5.638 3H2a1 1 0 0 0-1 1v8a1 1 0 0 0 1 1h11l2.403-5.606A1 1 0 0 0 14.483 6" /><path id="motive" fill="#cfd8dc" d="M6 9h1v5H6Zm0-2h1v1H6Zm2 .5v6a.5.5 0 0 0 .5.5h3a.5.5 0 0 0 .5-.5v-6a.5.5 0 0 0-.5-.5h-3a.5.5 0 0 0-.5.5m3 5.5H9V8h2zm5-5V7h-2.5a.5.5 0 0 0-.5.5v3a.5.5 0 0 0 .5.5H15v2h-2v1h2.5a.5.5 0 0 0 .5-.5v-3a.5.5 0 0 0-.5-.5H14V8Z"/></svg>