<svg xmlns="http://www.w3.org/2000/svg" viewBox="0 0 16 16"><path id="folder" fill="#546e7a" d="M14.483 6H4.721a1 1 0 0 0-.949.684L2 12V5h12a1 1 0 0 0-1-1H7.562a1 1 0 0 1-.64-.232l-.644-.536A1 1 0 0 0 5.638 3H2a1 1 0 0 0-1 1v8a1 1 0 0 0 1 1h11l2.403-5.606A1 1 0 0 0 14.483 6" /><path id="motive" fill="#00e676" d="M11.249 13.999h3.464a.78.78 0 0 0 .563-.308.65.65 0 0 0 .094-.316.63.63 0 0 0-.094-.309l-2.342-4.027a.57.57 0 0 0-.222-.221.75.75 0 0 0-.335-.094.65.65 0 0 0-.537.315l-.591 1.027-1.188-1.993a.65.65 0 0 0-.215-.249.76.76 0 0 0-.624 0 .75.75 0 0 0-.255.249l-2.899 4.993a.6.6 0 0 0-.067.309.6.6 0 0 0 .067.315.65.65 0 0 0 .248.215.65.65 0 0 0 .315.094h2.182a2.13 2.13 0 0 0 1.94-1.12l1.06-1.847.557-.966 1.718 2.933h-2.282Zm-2.45-1h-1.52l2.267-3.9 1.14 1.947-.76 1.333a1.17 1.17 0 0 1-1.134.62Z"/></svg>