<svg xmlns="http://www.w3.org/2000/svg" viewBox="0 0 16 16"><path id="folder" fill="#0288d1" d="M14.483 6H4.721a1 1 0 0 0-.949.684L2 12V5h12a1 1 0 0 0-1-1H7.562a1 1 0 0 1-.64-.232l-.644-.536A1 1 0 0 0 5.638 3H2a1 1 0 0 0-1 1v8a1 1 0 0 0 1 1h11l2.403-5.606A1 1 0 0 0 14.483 6" /><path id="motive" fill="#b3e5fc" d="M12 6.5V8l2-2-2-2v1.5a3.99 4.008 0 0 0-4 4 3.95 3.967 0 0 0 .62 2.13l.73-.731A2.93 2.943 0 0 1 9 9.5a2.994 3.007 0 0 1 3-3m3.38.87-.73.73A2.985 2.997 0 0 1 12 12.5V11l-2 2 2 2v-1.5a3.99 4.008 0 0 0 4-4 3.936 3.952 0 0 0-.62-2.13"/></svg>