<svg xmlns="http://www.w3.org/2000/svg" viewBox="0 0 16 16"><path id="folder" fill="#546e7a" d="M14.483 6H4.721a1 1 0 0 0-.949.684L2 12V5h12a1 1 0 0 0-1-1H7.562a1 1 0 0 1-.64-.232l-.644-.536A1 1 0 0 0 5.638 3H2a1 1 0 0 0-1 1v8a1 1 0 0 0 1 1h11l2.403-5.606A1 1 0 0 0 14.483 6" /><g id="motive" fill="#eceff1"><path d="M11.477 5A4.5 4.5 0 0 0 7.2 8.184a.25.25 0 0 0 .243.316h1.615a.25.25 0 0 0 .22-.14 2.5 2.5 0 1 1 0 2.279.25.25 0 0 0-.22-.139H7.444a.25.25 0 0 0-.243.317 4.499 4.499 0 0 0 8.798-1.447A4.55 4.55 0 0 0 11.477 5"/><circle cx="11.5" cy="9.5" r="1"/></g></svg>