<svg xmlns="http://www.w3.org/2000/svg" viewBox="0 0 16 16"><path id="folder" fill="#ff5722" d="M14.483 6H4.721a1 1 0 0 0-.949.684L2 12V5h12a1 1 0 0 0-1-1H7.562a1 1 0 0 1-.64-.232l-.644-.536A1 1 0 0 0 5.638 3H2a1 1 0 0 0-1 1v8a1 1 0 0 0 1 1h11l2.403-5.606A1 1 0 0 0 14.483 6" /><path id="motive" fill="#ffccbc" d="M8 6c-.554 0-1 .446-1 1s.446 1 1 1h4c.554 0 1-.446 1-1s-.446-1-1-1Zm7 0a1 1 0 0 0-1 1 1 1 0 0 0 1 1 1 1 0 0 0 1-1 1 1 0 0 0-1-1M8 9a1 1 0 0 0-1 1 1 1 0 0 0 1 1 1 1 0 0 0 1-1 1 1 0 0 0-1-1m3 0c-.554 0-1 .446-1 1s.446 1 1 1h4c.554 0 1-.446 1-1s-.446-1-1-1zm-3 3c-.554 0-1 .446-1 1s.446 1 1 1h4c.554 0 1-.446 1-1s-.446-1-1-1zm7 0a1 1 0 0 0-1 1 1 1 0 0 0 1 1 1 1 0 0 0 1-1 1 1 0 0 0-1-1"/></svg>