<svg xmlns="http://www.w3.org/2000/svg" viewBox="0 0 16 16"><path id="folder" fill="#0277bd" d="M14.483 6H4.721a1 1 0 0 0-.949.684L2 12V5h12a1 1 0 0 0-1-1H7.562a1 1 0 0 1-.64-.232l-.644-.536A1 1 0 0 0 5.638 3H2a1 1 0 0 0-1 1v8a1 1 0 0 0 1 1h11l2.403-5.606A1 1 0 0 0 14.483 6" /><path id="motive" fill="#b3e5fc" d="M10 10.5a.5.5 0 0 0-.5-.5.5.5 0 0 0 .5-.5V7h1V6h-1a1 1 0 0 0-1 1v2a.5.5 0 0 1-.5.5H8v1h.5a.5.5 0 0 1 .5.5v2a1 1 0 0 0 1 1h1v-1h-1zm5.5-1A.5.5 0 0 1 15 9V7a1 1 0 0 0-1-1h-1v1h1v2.5a.5.5 0 0 0 .5.5.5.5 0 0 0-.5.5V13h-1v1h1a1 1 0 0 0 1-1v-2a.5.5 0 0 1 .5-.5h.5v-1z"/></svg>