<svg xmlns="http://www.w3.org/2000/svg" viewBox="0 0 16 16"><path id="folder" fill="#ff7043" d="M14.483 6H4.721a1 1 0 0 0-.949.684L2 12V5h12a1 1 0 0 0-1-1H7.562a1 1 0 0 1-.64-.232l-.644-.536A1 1 0 0 0 5.638 3H2a1 1 0 0 0-1 1v8a1 1 0 0 0 1 1h11l2.403-5.606A1 1 0 0 0 14.483 6" /><path id="motive" fill="#ffccbc" d="M15 12v.5a.5.5 0 0 1-1 0V12a1 1 0 0 0-1-1 1.5 1.5 0 0 0 1.498-1.58A1.558 1.557 0 0 0 12.915 8H7v1h1v4H7v1h4v-1h-1v-1h2c.41.41.149 1.154.59 1.685a.95.95 0 0 0 .73.315H16v-2Zm-3-2h-2V9h2a.5.5 0 0 1 0 1"/></svg>