<svg xmlns="http://www.w3.org/2000/svg" viewBox="0 0 16 16"><path id="folder" fill="#f9a825" d="M14.483 6H4.721a1 1 0 0 0-.949.684L2 12V5h12a1 1 0 0 0-1-1H7.562a1 1 0 0 1-.64-.232l-.644-.536A1 1 0 0 0 5.638 3H2a1 1 0 0 0-1 1v8a1 1 0 0 0 1 1h11l2.403-5.606A1 1 0 0 0 14.483 6" /><path id="motive" fill="#fff9c4" d="M14 8V6.086a2.06 2.06 0 0 0-1.804-2.076A2 2 0 0 0 10 6v2H9a1 1 0 0 0-1 1v4a1 1 0 0 0 1 1h6a1 1 0 0 0 1-1V9a1 1 0 0 0-1-1zm-2 4a1 1 0 1 1 1-1 1 1 0 0 1-1 1m1-4h-2V6a1 1 0 0 1 2 0z"/></svg>