<svg xmlns="http://www.w3.org/2000/svg" viewBox="0 0 16 16"><path id="folder" fill="#009688" d="M14.483 6H4.721a1 1 0 0 0-.949.684L2 12V5h12a1 1 0 0 0-1-1H7.562a1 1 0 0 1-.64-.232l-.644-.536A1 1 0 0 0 5.638 3H2a1 1 0 0 0-1 1v8a1 1 0 0 0 1 1h11l2.403-5.606A1 1 0 0 0 14.483 6" /><g id="motive" data-mit-no-recolor="true"><path fill="#41b883" d="m7 14.995 3.6-7.19.9 1.754v1.844l-1.788 3.591ZM16 15l-3.6-7.19-.9 1.754v1.844L13.283 15Z"/><path fill="#35495e" d="m7 6 2.25 4.5 1.35-2.695L9.7 6Zm9 0-2.25 4.5-1.35-2.695L13.3 6Z"/></g></svg>