<svg xmlns="http://www.w3.org/2000/svg" viewBox="0 0 16 16"><path id="folder" fill="#0288d1" d="M14.483 6H4.721a1 1 0 0 0-.949.684L2 12V5h12a1 1 0 0 0-1-1H7.562a1 1 0 0 1-.64-.232l-.644-.536A1 1 0 0 0 5.638 3H2a1 1 0 0 0-1 1v8a1 1 0 0 0 1 1h11l2.403-5.606A1 1 0 0 0 14.483 6" /><path id="motive" fill="#b3e5fc" d="M15.054 10H16V8a1 1 0 0 0-1-1h-2V6a1 1 0 0 0-2 0v1H9a1 1 0 0 0-1 1v2H7a1 1 0 0 0 0 2h1v2a1 1 0 0 0 1 1h2v-.946a1.04 1.04 0 0 1 .832-1.04A1 1 0 0 1 13 14v1h2a1 1 0 0 0 1-1v-2h-1a1 1 0 0 1-.986-1.168 1.04 1.04 0 0 1 1.04-.832"/></svg>