<svg xmlns="http://www.w3.org/2000/svg" width="1em" height="1em" viewBox="0 0 32 32">
	<path d="M0 0h32v32H0z" fill="none" />
	<path fill="#50abf1" d="M14.67 26.604c-1.015-1.218-1.116-1.32-1.015-1.522L27.861 11.18c.102-.102 1.827.71 2.131 1.116c.203.203-1.015 1.42-6.799 7.915l-7.103 7.712s-.811-.609-1.42-1.32m-3.146-3.348l-1.015-1.319c.102-.203 7.915-7.001 8.118-7.001c.102 0 2.03 1.522 2.03 1.724c0 .203-7.915 7.611-8.118 7.611zm-2.74-3.247q-.811-1.015-.71-1.116l3.856-2.841l1.725 1.623c0 .203-3.653 3.247-3.856 3.247q-.304 0-1.015-1.014M6.45 17.37q-1.014-.913-.608-1.015l11.162-7.813c.202 0 1.725 1.014 1.725 1.116L7.364 18.283zm7.306-1.116q-.811-.71-.811-1.015l.811-.71l4.77-3.653l4.059-3.045c.304 0 1.826 1.015 1.725 1.015c0 .305-9.437 8.118-9.64 8.118zm-9.335-1.218q-.71-.71-.406-.913l7.61-4.77a4.06 4.06 0 0 1 1.421 1.117a80 80 0 0 1-8.016 5.48zm16.236 0l-1.015-.812l5.378-4.769q.102-.304 1.218.304l1.015.71a70 70 0 0 1-5.581 5.277zm-17.961-2.03l-.71-.71l.304-.203l7.103-4.16l6.495-3.856l.608.304l.71.508c0 .101-14.002 8.93-14.205 8.93zm10.147-3.45q-.609-.405-.609-.608q.203-.406 2.841-2.03l2.842-1.624l.71.406l.71.508c0 .203-5.58 3.957-5.784 3.957zm5.682-.811l-.71-.61l2.334-1.623l1.522.913l-.203.305c-.304.406-2.03 1.522-2.03 1.522z" />
</svg>
