<svg xmlns="http://www.w3.org/2000/svg" width="24" height="24" viewBox="141 147 722 700">
  <g transform="translate(0,1000) scale(1,-1)">
    <path fill="#8dc149" d="M813 709V284Q813 283 811.0 280.0Q809 277 809 275Q799 259 784 259H544V197Q539 198 528.0 200.0Q517 202 513 203Q502 205 478.5 209.5Q455 214 443.0 215.5Q431 217 406.0 222.0Q381 227 368.5 228.5Q356 230 331.0 234.5Q306 239 294.5 240.5Q283 242 259.5 247.0Q236 252 225 253Q219 255 208.0 256.5Q197 258 191 259V719Q192 719 197.0 720.5Q202 722 203 722Q230 741 275 747Q287 749 311 754Q329 758 337 759L345 761Q380 766 397 772Q408 773 431.5 778.0Q455 783 466.5 784.5Q478 786 501.5 790.5Q525 795 538 797H541V738H784Q794 738 802.0 731.5Q810 725 812 716V709ZM788 713H541V675H625V622H541V603H625V550H541V531H625V478H541V456H628V403H541V384H625V331H541V294H788ZM459 353Q459 354 458.5 355.0Q458 356 456 356Q445 378 421.5 422.0Q398 466 387 488V494Q419 556 456 622V625H453Q437 625 431 622Q413 622 400 619Q398 619 397.5 618.5Q397 618 397 616L372 563L353 519Q352 522 350.0 530.0Q348 538 347 541L319 609Q316 614 315.0 615.0Q314 616 308.5 616.0Q303 616 290.5 614.5Q278 613 272 613H259V609L269 588L316 494V491Q306 472 285 432Q266 397 256 378Q256 377 254.5 375.0Q253 373 253 372H272Q278 372 289.0 370.5Q300 369 306 369Q309 369 309.0 369.5Q309 370 309 372Q328 409 338 431Q339 436 343.5 445.5Q348 455 350 459Q350 466 353 469V466Q354 463 356.0 457.5Q358 452 359 450Q367 434 381 402L394 372L396 369Q399 366 403 366Q411 366 426.5 364.0Q442 362 450 362Q452 356 454.0 354.5Q456 353 459 353ZM747 675V622H650V675ZM650 325V378H747V325ZM650 472V525H747V472ZM747 600V547H650V600ZM747 450V397H650V450Z"/>
  </g>
</svg>