<svg xmlns="http://www.w3.org/2000/svg" width="24" height="24" viewBox="138 147 725 709">
  <g transform="translate(0,1000) scale(1,-1)">
    <path fill="#519aba" d="M813 644V725Q813 735 806.0 742.5Q799 750 788 750H559V806H516Q513 806 508.0 804.5Q503 803 500 803Q489 802 467.0 797.0Q445 792 434 791Q391 784 372 778Q328 772 303 766L234 756Q203 750 191 750H188V253Q200 252 225.0 247.0Q250 242 262.5 240.5Q275 239 301.5 234.5Q328 230 340.5 228.5Q353 227 378.0 222.0Q403 217 416 216Q447 212 494 200Q503 197 525 197H553V250Q553 252 553.5 252.5Q554 253 556 253H784Q794 253 797 256Q806 256 806 266Q806 269 807.5 273.5Q809 278 809 281V644L812 641Q813 641 813 644ZM469 597 441 475Q437 463 432 438Q428 417 425 406Q425 404 423 404L422 403Q418 401 409 402L403 403H384Q382 403 381.5 403.5Q381 404 381 406Q380 416 375.0 436.0Q370 456 369 466Q366 478 361.0 503.0Q356 528 353 541Q353 538 351.5 531.5Q350 525 350 522L331 428Q331 425 329.5 417.0Q328 409 328.0 406.5Q328 404 327.5 403.5Q327 403 325 403Q319 403 306.5 404.5Q294 406 288 406Q285 406 284.5 406.5Q284 407 284 409Q266 509 253 562Q252 567 250.0 578.0Q248 589 247 594V597H284Q287 577 294 536Q303 488 306 463Q306 466 307.5 472.0Q309 478 309 481Q314 500 322.0 539.0Q330 578 334 597Q334 599 334.5 599.5Q335 600 338 600H369Q373 600 374.5 599.0Q376 598 378 594Q397 506 406 459V456Q408 469 412.5 494.0Q417 519 418.5 530.5Q420 542 425.0 565.5Q430 589 431 600L432 602Q432 603 434 603Q459 603 475 606H478Q474 606 471.5 603.0Q469 600 469 597ZM791 725Q791 724 791 724V725V272H556V328H741V356H563Q560 356 559.5 356.5Q559 357 559 359V388Q559 390 559.5 390.5Q560 391 563 391H744V419H559V453H741Q743 453 743.5 453.5Q744 454 744 456V478Q744 480 743.5 480.5Q743 481 741 481H563Q560 481 559.5 481.5Q559 482 559 484V516H744V544H566Q563 544 562.5 544.5Q562 545 562 547V575Q562 577 562.5 577.5Q563 578 566 578H744V606H559V644H741Q743 644 743.5 644.5Q744 645 744 647V669Q744 671 743.5 671.5Q743 672 741 672H556V719Q556 721 556.5 721.5Q557 722 559 722H788L790 727Q791 727 791 725Z"/>
  </g>
</svg>