<svg
  width="16"
  height="16"
  viewBox="0 0 16 16"
  fill="none"
  xmlns="http://www.w3.org/2000/svg"
>
  <style>
    @media (prefers-color-scheme: dark) {
      .favicon-stroke {
        fill: #fff;
      }
      .favicon-bg {
        fill: #0d0d0d;
      }
    }
  </style>
  <rect class="favicon-bg" width="16" height="16" rx="4" fill="white" />
  <g>
    <path
      class="favicon-stroke"
      d="M12.9851 6.93777C13.1163 6.54364 13.1618 6.12607 13.1186 5.71295C13.0754 5.29983 12.9444 4.90072 12.7344 4.54231C12.4232 4.00021 11.9478 3.57101 11.3768 3.31664C10.8058 3.06227 10.1687 2.99589 9.55751 3.12706C9.28184 2.81639 8.943 2.56818 8.56362 2.39905C8.18425 2.22993 7.77314 2.14379 7.3578 2.1464C6.73292 2.1449 6.1237 2.34187 5.61797 2.70892C5.11225 3.07598 4.73616 3.59415 4.54391 4.18873C4.13684 4.27206 3.75225 4.44139 3.41591 4.68539C3.07957 4.92938 2.79924 5.24241 2.59368 5.60352C2.27994 6.14413 2.14602 6.77039 2.21123 7.39205C2.27644 8.01367 2.5374 8.59851 2.95649 9.06224C2.82527 9.45637 2.77975 9.87394 2.82297 10.2871C2.8662 10.7002 2.99718 11.0993 3.20713 11.4577C3.51841 11.9998 3.99385 12.4289 4.56484 12.6833C5.13584 12.9377 5.77289 13.0041 6.38407 12.8729C6.65975 13.1836 6.99862 13.4318 7.37796 13.601C7.75734 13.7701 8.16844 13.8562 8.58379 13.8536C9.20899 13.8552 9.81853 13.6582 10.3244 13.2909C10.8304 12.9236 11.2065 12.4051 11.3986 11.8101C11.8057 11.7268 12.1903 11.5575 12.5266 11.3135C12.8629 11.0695 13.1433 10.7564 13.3488 10.3953C13.6622 9.85477 13.7958 9.22866 13.7304 8.60726C13.6651 7.98587 13.4041 7.40129 12.9851 6.93777ZM8.58472 13.0883C8.0715 13.089 7.57441 12.9093 7.18031 12.5805C7.19808 12.5708 7.22925 12.5537 7.24956 12.5413L9.58061 11.1948C9.63911 11.1615 9.6877 11.1133 9.72136 11.055C9.75505 10.9967 9.77258 10.9305 9.77217 10.8632V7.57684L10.7575 8.14576C10.7626 8.14834 10.7671 8.15214 10.7704 8.15685C10.7738 8.16157 10.7759 8.16704 10.7766 8.17275V10.8943C10.7759 11.4756 10.5448 12.0329 10.1339 12.4441C9.72308 12.8554 9.16599 13.087 8.58472 13.0883ZM3.87091 11.075C3.61385 10.6309 3.5212 10.1105 3.60918 9.60485C3.62649 9.61524 3.65673 9.6337 3.67842 9.64617L6.00947 10.9926C6.06756 11.0266 6.13365 11.0445 6.20094 11.0445C6.2682 11.0445 6.33428 11.0266 6.39238 10.9926L9.23834 9.34936V10.4872C9.23867 10.493 9.23755 10.4988 9.23509 10.5041C9.23264 10.5094 9.22892 10.5139 9.22427 10.5174L6.86782 11.878C6.36379 12.1683 5.76516 12.2467 5.20333 12.0962C4.64148 11.9457 4.1623 11.5784 3.87091 11.075ZM3.25768 5.98617C3.51363 5.54141 3.91789 5.2009 4.39966 5.02421C4.39966 5.04429 4.39851 5.07985 4.39851 5.10452V7.79747C4.3981 7.86473 4.41561 7.93087 4.44924 7.98915C4.48287 8.04739 4.5314 8.09563 4.58984 8.1289L7.4358 9.77197L6.45054 10.3409C6.44568 10.3441 6.44009 10.346 6.43429 10.3465C6.4285 10.3471 6.42265 10.3462 6.41729 10.3439L4.06062 8.98216C3.55747 8.69077 3.19039 8.21176 3.03987 7.65013C2.88935 7.08853 2.96768 6.49014 3.25768 5.98617ZM11.3527 7.86994L8.50669 6.22667L9.49198 5.65799C9.49684 5.6548 9.50243 5.65283 9.50823 5.65231C9.51402 5.65178 9.51985 5.65272 9.5252 5.655L11.8819 7.01554C12.2429 7.2241 12.5371 7.53119 12.7299 7.90087C12.9228 8.27056 13.0063 8.68752 12.9707 9.10295C12.9351 9.51839 12.7819 9.91509 12.5291 10.2466C12.2762 10.5781 11.9341 10.8307 11.5428 10.9749C11.5428 10.9546 11.5428 10.919 11.5428 10.8943V8.20137C11.5434 8.13423 11.5261 8.06814 11.4926 8.0099C11.4592 7.95165 11.4109 7.90336 11.3527 7.86994ZM12.3333 6.394C12.316 6.38337 12.2858 6.36514 12.2641 6.3527L9.93303 5.00621C9.87493 4.97232 9.80887 4.95444 9.74158 4.95444C9.67432 4.95444 9.60824 4.97232 9.55014 5.00621L6.70418 6.64951V5.51167C6.70386 5.50585 6.70497 5.50005 6.70743 5.49479C6.70988 5.48952 6.7136 5.48492 6.71826 5.48144L9.0747 4.12203C9.4357 3.91387 9.84853 3.81281 10.2649 3.83068C10.6812 3.84856 11.0838 3.98462 11.4257 4.22296C11.7675 4.46129 12.0344 4.79204 12.1951 5.17652C12.3559 5.56099 12.4038 5.98327 12.3333 6.394ZM6.16851 8.42203L5.18299 7.85311C5.17784 7.85053 5.17336 7.84673 5.17002 7.84202C5.16668 7.8373 5.16455 7.83183 5.16385 7.82609V5.10452C5.16411 4.6877 5.28311 4.27956 5.5069 3.9279C5.73071 3.57623 6.05006 3.29559 6.42756 3.11883C6.80507 2.94206 7.22509 2.87649 7.63851 2.92977C8.05195 2.98306 8.44163 3.153 8.76197 3.41971C8.74421 3.42941 8.71327 3.44649 8.69272 3.45895L6.36168 4.80542C6.30317 4.83867 6.25462 4.8869 6.22093 4.94516C6.18727 5.0034 6.16974 5.06958 6.17012 5.13683L6.16851 8.42203ZM6.70371 7.26803L7.97126 6.53595L9.23878 7.26757V8.73127L7.97126 9.46292L6.70371 8.73127V7.26803Z"
      fill="#0D0D0D"
    />
  </g>
</svg>
